<svg xmlns="http://www.w3.org/2000/svg" xmlns:xlink="http://www.w3.org/1999/xlink" viewBox="0 0 329.03 368.75"><defs><style>.cls-1{fill:#29235c;}.cls-2{fill:#1d71b8;}.cls-3{fill:#2d2e83;}.cls-4{fill:#3ca8e0;}.cls-5{fill:#71caed;}.cls-6{fill:url(#Gradiente_sem_nome_9);}.cls-7{fill:url(#Gradiente_sem_nome_9-2);}.cls-8{fill:url(#Gradiente_sem_nome_9-3);}.cls-9{fill:url(#Gradiente_sem_nome_9-4);}.cls-10{fill:url(#Gradiente_sem_nome_9-5);}.cls-11{fill:url(#Gradiente_sem_nome_9-6);}.cls-12{fill:url(#Gradiente_sem_nome_9-7);}.cls-13{fill:url(#Gradiente_sem_nome_9-8);}.cls-14{fill:url(#Gradiente_sem_nome_9-9);}</style><linearGradient id="Gradiente_sem_nome_9" x1="94.36" y1="344.7" x2="135.93" y2="268.5" gradientTransform="matrix(1, 0, 0, -1, 0, 535.13)" gradientUnits="userSpaceOnUse"><stop offset="0" stop-color="#fff" stop-opacity="0.4"/><stop offset="1" stop-color="#fff" stop-opacity="0"/></linearGradient><linearGradient id="Gradiente_sem_nome_9-2" x1="168.8" y1="385.3" x2="210.36" y2="309.1" xlink:href="#Gradiente_sem_nome_9"/><linearGradient id="Gradiente_sem_nome_9-3" x1="242.08" y1="425.27" x2="283.64" y2="349.07" xlink:href="#Gradiente_sem_nome_9"/><linearGradient id="Gradiente_sem_nome_9-4" x1="61.08" y1="326.54" x2="102.64" y2="250.35" xlink:href="#Gradiente_sem_nome_9"/><linearGradient id="Gradiente_sem_nome_9-5" x1="182.03" y1="392.52" x2="223.59" y2="316.32" xlink:href="#Gradiente_sem_nome_9"/><linearGradient id="Gradiente_sem_nome_9-6" x1="279.67" y1="445.77" x2="321.23" y2="369.58" xlink:href="#Gradiente_sem_nome_9"/><linearGradient id="Gradiente_sem_nome_9-7" x1="89.65" y1="342.13" x2="131.22" y2="265.94" xlink:href="#Gradiente_sem_nome_9"/><linearGradient id="Gradiente_sem_nome_9-8" x1="10.44" y1="298.92" x2="52" y2="222.73" xlink:href="#Gradiente_sem_nome_9"/><linearGradient id="Gradiente_sem_nome_9-9" x1="176.49" y1="389.5" x2="218.05" y2="313.3" xlink:href="#Gradiente_sem_nome_9"/></defs><g id="Camada_2" data-name="Camada 2"><g id="Layer_1" data-name="Layer 1"><path class="cls-1" d="M66.05,95A52,52,0,0,1,77.18,68.86L62.32,53.4,16.47,79.88C11.14,83,6.39,88.67,3.38,95Z"/><path class="cls-2" d="M164.56,267.5,127.54,153A52.25,52.25,0,0,1,100,150.78L63.9,220.56a25.6,25.6,0,0,1,8.37,19,27.4,27.4,0,0,1-.18,3l83.45,33.38A29.64,29.64,0,0,1,164.56,267.5Z"/><path class="cls-3" d="M46.6,213.85a26.06,26.06,0,0,1,5.48.59l36.1-69.79a52.28,52.28,0,0,1-22.13-36.36H0v49.22l38.4,57.68A25.81,25.81,0,0,1,46.6,213.85Z"/><path class="cls-2" d="M179.73,263.3a29.18,29.18,0,0,1,6.45.72l44.54-92.54a38,38,0,0,1-15.8-30.86c0-1.34.07-2.68.2-4l-49.2-14.21A52.5,52.5,0,0,1,140.21,149l37,114.46C178.05,263.34,178.89,263.3,179.73,263.3Z"/><path class="cls-4" d="M274.72,171.81a38,38,0,0,1-6.86,3.82l9.87,42.75a21.24,21.24,0,0,1,17,30.7l28.7,28.7c3.42-5.46,5.59-11.8,5.59-17.45V226.12Z"/><path class="cls-4" d="M150.25,292.78a30.12,30.12,0,0,1,.34-4.49L67.15,254.92a25.85,25.85,0,0,1-7.23,6.55L78.3,324.56l38.19,22.05,38.23-38.23A29.33,29.33,0,0,1,150.25,292.78Z"/><path class="cls-4" d="M264.75,221.37l-9.86-42.75c-.64,0-1.29,0-1.94,0a38,38,0,0,1-10.24-1.4l-44.53,92.53a30.11,30.11,0,0,1,3.44,3.24l53.29-29.55a21.26,21.26,0,0,1,9.84-22.11Z"/><path class="cls-2" d="M318.44,84.55l-34.3,34.3a38,38,0,0,1,0,43.55L329,207.29V108.41C329,100.34,324.61,90.87,318.44,84.55Z"/><path class="cls-5" d="M195.33,317.79a29.46,29.46,0,0,1-31.2,0L128.42,353.5,148,364.82c9.06,5.23,23.89,5.23,32.94,0l38.92-22.46Z"/><path class="cls-2" d="M47.14,265.19H46.6a25.67,25.67,0,0,1-19.28-42.63L0,181.53v78.8c0,10.46,7.41,23.3,16.47,28.53l45.16,26.08Z"/><path class="cls-5" d="M285.33,258.49a21.24,21.24,0,0,1-24-3.36l-53.3,29.54a29.44,29.44,0,0,1-3.33,23.71l27.09,27.09,80.73-46.61a22,22,0,0,0,1.9-1.24Z"/><path class="cls-3" d="M170.22,101.64a52.64,52.64,0,0,1-.61,8l49.21,14.21A38.1,38.1,0,0,1,243,103.92L236.9,36.2,185,6.24,150.94,61.08A52.22,52.22,0,0,1,170.22,101.64Z"/><path class="cls-1" d="M86.77,59.62a52.25,52.25,0,0,1,52.86-5.56L172.68.85c-8.29-1.78-18-.77-24.64,3.06L74.2,46.55Z"/><path class="cls-3" d="M307.31,76.85,251,44.34l5.24,58.4a37.76,37.76,0,0,1,18.48,6.7Z"/><path class="cls-6" d="M72.09,242.55l83.45,33.38a29.64,29.64,0,0,1,9-8.43L131.72,166a325.75,325.75,0,0,0-66,56.48,25.56,25.56,0,0,1,6.51,17.08A27.4,27.4,0,0,1,72.09,242.55Z"/><path class="cls-7" d="M179.73,263.3a29.18,29.18,0,0,1,6.45.72l44.54-92.54a38,38,0,0,1-15.8-30.86c0-1.34.07-2.68.2-4l-14.79-4.27a321.91,321.91,0,0,0-56.94,26.41l33.84,104.64C178.05,263.34,178.89,263.3,179.73,263.3Z"/><path class="cls-8" d="M267.86,175.63l9.87,42.75a21.24,21.24,0,0,1,17,30.7l28.7,28.7c3.42-5.46,5.59-11.8,5.59-17.45V226.12l-54.31-54.31A38,38,0,0,1,267.86,175.63Z"/><path class="cls-9" d="M150.25,292.78a30.12,30.12,0,0,1,.34-4.49L67.15,254.92a25.85,25.85,0,0,1-7.23,6.55L78.3,324.56l38.19,22.05,38.23-38.23A29.33,29.33,0,0,1,150.25,292.78Z"/><path class="cls-10" d="M201.62,273l53.29-29.55a21.26,21.26,0,0,1,9.84-22.11l-9.86-42.75c-.64,0-1.29,0-1.94,0a38,38,0,0,1-10.24-1.4l-44.53,92.53A30.11,30.11,0,0,1,201.62,273Z"/><path class="cls-11" d="M291,140.63a37.91,37.91,0,0,1-6.85,21.77L329,207.29V115c-7.18-.47-14.41-.74-21.71-.74-6.43,0-12.81.21-19.15.58l-4,4A37.91,37.91,0,0,1,291,140.63Z"/><path class="cls-12" d="M179.73,322.26a29.33,29.33,0,0,1-15.6-4.47L128.42,353.5,148,364.82c9.06,5.23,23.89,5.23,32.94,0l38.92-22.46-24.57-24.57A29.33,29.33,0,0,1,179.73,322.26Z"/><path class="cls-13" d="M47.14,265.19H46.6a25.55,25.55,0,0,1-11.41-2.67,321.07,321.07,0,0,0-16.1,27.84l42.54,24.57Z"/><path class="cls-14" d="M275.78,260.76a21.19,21.19,0,0,1-14.41-5.63l-53.3,29.54a29.44,29.44,0,0,1-3.33,23.71l27.09,27.09,80.73-46.61a22,22,0,0,0,1.9-1.24l-29.13-29.13A21.14,21.14,0,0,1,275.78,260.76Z"/></g></g></svg>